# xmcd
#
# Track frame offsets: 
#        150
#        28878
#        46298
#        71387
#        84796
#        101494
#        130355
#        146897
#        201793
#        228975
#
# Disc length: 3586 seconds
#
# Revision: 1
# Processed by: cddbd v1.5.2PL0 Copyright (c) Steve Scherf et al.
# Submitted via: ExactAudioCopy v0.99pb4
#
DISCID=860e000a
DTITLE=Eelco Gelling - The Missing Link
DYEAR=2000
DGENRE=Blues
TTITLE0=Something inside of me
TTITLE1=Stepping in my shoes
TTITLE2=Country Boy
TTITLE3=Downhearted Woman
TTITLE4=You Don't Know
TTITLE5=Its my own fault
TTITLE6=Session
TTITLE7=That's all right
TTITLE8=On the Road
TTITLE9=Here I'm Standing
EXTD=Eelco Geeling, former gitarist of Cuby and The Blizzards
EXTT0=
EXTT1=
EXTT2=
EXTT3=
EXTT4=
EXTT5=
EXTT6=
EXTT7=
EXTT8=
EXTT9=
PLAYORDER=
